<?xml version="1.0" encoding="UTF-8"?>
<svg width="1000" height="1000" version="1.1" viewBox="0 0 1000 1000" xmlns="http://www.w3.org/2000/svg">
 <g transform="translate(50,50) scale(0.9,0.9)">
  <circle cx="500" cy="500" r="450" fill="white" stroke="black" stroke-width="20"/>
  <path d="M500 150 C 300 150, 150 300, 150 500 C 150 700, 300 850, 500 850 C 700 850, 850 700, 850 500 C 850 300, 700 150, 500 150" fill="none" stroke="black" stroke-width="20"/>
  <text font-family="Arial Black" font-size="72" font-weight="bold" text-anchor="middle">
    <textPath href="#top-text" startOffset="50%">6th TRINIDAD SEA SCOUTS</textPath>
  </text>
  <text font-family="Arial Black" font-size="72" font-weight="bold" text-anchor="middle">
    <textPath href="#bottom-text" startOffset="50%">TRINIDAD &amp; TOBAGO</textPath>
  </text>
  <path id="top-text" d="M500 200 C 300 200, 200 300, 200 500" fill="none"/>
  <path id="bottom-text" d="M500 800 C 700 800, 800 700, 800 500" fill="none"/>
  <text x="500" y="350" font-family="Arial Black" font-size="48" font-weight="bold" text-anchor="middle">Est. 1936</text>
  <g transform="translate(500,500) scale(0.4,0.4)">
    <path d="M0,-300 L100,-100 L-100,-100 Z" fill="black"/>
    <rect x="-20" y="-100" width="40" height="400" fill="black"/>
    <path d="M-150,200 L150,200 L0,300 Z" fill="black"/>
  </g>
  <path d="M400,600 L450,550 L500,600 L550,550 L600,600" fill="none" stroke="black" stroke-width="10"/>
  <path d="M450,500 C450,550 550,550 550,500" fill="none" stroke="black" stroke-width="10"/>
  <path d="M500,650 L520,630 L500,610 L480,630 Z" fill="black"/>
 </g>
</svg>